<svg width="40" height="40" viewBox="0 0 40 40" fill="none" xmlns="http://www.w3.org/2000/svg">
<mask id="mask0_45_378" style="mask-type:luminance" maskUnits="userSpaceOnUse" x="0" y="0" width="40" height="40">
<path d="M-0.000160061 19.799L19.7988 -7.47279e-06L39.5978 19.799L19.7988 39.598L-0.000160061 19.799Z" fill="white"/>
</mask>
<g mask="url(#mask0_45_378)">
<path d="M23.0513 13.5811L23.0513 7.72899L16.6021 7.72895L16.6021 13.5813C16.6021 14.4671 16.0914 15.2687 15.2954 15.6575C11.827 17.3518 9.44731 20.9302 9.49023 25.0602C9.5492 30.7425 14.1441 35.2874 19.8268 35.2874C25.5358 35.2874 30.1638 30.6593 30.1638 24.9503C30.1638 20.8686 27.798 17.34 24.3629 15.6599C23.5654 15.2697 23.0513 14.4688 23.0513 13.5811Z" fill="#CBE1FF"/>
<path d="M24.3629 15.6594C27.7981 17.3401 30.164 20.8685 30.164 24.9501C30.1636 30.6592 25.5357 35.2871 19.8267 35.2875C16.5967 35.2875 13.7177 33.8187 11.8238 31.5073C14.2945 31.2659 16.7003 30.1995 18.593 28.3068C22.9308 23.969 22.9304 16.9365 18.593 12.5991C17.9783 11.9844 17.3099 11.457 16.6023 11.0164L16.6023 7.72905L23.0515 7.72862L23.0515 13.5807C23.0512 14.4687 23.5654 15.2698 24.3629 15.6594Z" fill="#A9CFFC"/>
<path d="M23.0517 13.5243C22.8916 13.3275 22.7199 13.1374 22.5367 12.9542C20.9117 11.3292 18.7262 10.6074 16.6025 10.7879L16.6025 7.72919L23.0517 7.72872L23.0517 13.5243Z" fill="#7CBAF7"/>
<path d="M30.1633 24.9503C30.1629 30.6594 25.535 35.2873 19.826 35.2876C17.0926 35.2874 14.6072 34.2267 12.7588 32.4944C10.2086 30.1045 11.6683 25.8226 15.146 25.4746C17.7826 25.2109 20.2647 25.9584 21.3005 23.1768C21.6286 22.2957 21.3069 21.1121 21.1007 19.883C20.6133 16.9798 23.9492 15.0235 26.2537 16.8553C28.6358 18.7487 30.1633 21.6711 30.1633 24.9503Z" fill="url(#paint0_linear_45_378)"/>
<path d="M30.1634 24.9503C30.163 30.6594 25.5351 35.2873 19.8261 35.2876C17.4817 35.2872 15.3198 34.5068 13.5857 33.1918C16.1778 33.2121 18.7764 32.2334 20.7543 30.2554C24.2859 26.7239 24.6325 21.2136 21.7952 17.2937C22.8338 16.0719 24.7603 15.6679 26.2538 16.8555C28.636 18.7485 30.1634 21.671 30.1634 24.9503Z" fill="url(#paint1_linear_45_378)"/>
<path d="M23.0512 8.14061H16.4995L16.0727 4.01001C16.0395 3.68839 16.2918 3.40865 16.6152 3.40865L22.9357 3.40865C23.259 3.40865 23.5114 3.68839 23.4781 4.00997L23.0512 8.14061Z" fill="#933A25"/>
<path d="M18.2349 6.63032C18.4822 6.87766 18.4822 7.27866 18.2349 7.52596C17.9876 7.77329 17.5866 7.77329 17.3393 7.52596C17.0919 7.27862 17.092 6.87766 17.3393 6.63032C17.5866 6.38303 17.9876 6.38299 18.2349 6.63032Z" fill="#591B16"/>
<path d="M23.4773 4.01L23.0507 8.14076L16.754 8.14076C18.175 7.93952 19.5446 7.29261 20.6373 6.19984C21.446 5.39118 22.0109 4.43038 22.3304 3.40888L22.9351 3.40888C23.2582 3.40853 23.5108 3.68812 23.4773 4.01Z" fill="#713327"/>
<path d="M23.6113 9.9157L16.0409 9.9157C15.3307 9.91574 14.7549 9.33991 14.7549 8.62962C14.7549 7.91933 15.3307 7.34353 16.0409 7.34353L23.6113 7.34354C24.3216 7.34354 24.8974 7.91933 24.8974 8.62962C24.8975 9.33995 24.3217 9.91574 23.6113 9.9157Z" fill="#E3F0FF"/>
<path d="M19.4832 7.34359L17.673 7.34359C16.9706 7.34355 16.4012 7.91231 16.4 8.61467L16.4 8.64038C16.3987 9.34441 16.9689 9.91576 17.6729 9.91579L19.4832 9.91576C20.1864 9.91579 20.7564 9.34576 20.7564 8.64251V8.61683C20.7564 7.91358 20.1864 7.34355 19.4832 7.34359Z" fill="#F5FAFF"/>
<path d="M30.1642 24.9503C30.1638 30.6594 25.5359 35.2873 19.8269 35.2876C17.1566 35.2872 14.7229 34.275 12.8889 32.613C14.9994 32.9779 18.0697 32.6779 21.0295 29.373C26.2681 23.5234 20.5781 19.4918 17.259 21.0404C14.227 22.4549 12.4583 19.546 14.636 18.001C17.4646 15.9942 20.9766 21.5032 24.5607 19.6863C26 18.9569 26.2406 17.7745 26.0944 16.7304C28.5683 18.6187 30.1642 21.5976 30.1642 24.9503Z" fill="url(#paint2_linear_45_378)"/>
<path d="M30.1631 24.9503C30.1627 28.9886 27.8474 32.4855 24.4716 34.1865C24.6102 34.0638 24.7461 33.936 24.8788 33.8033C28.5466 30.1355 28.5465 24.1887 24.8787 20.5209C24.6445 20.2866 24.4011 20.0671 24.1493 19.8631C24.2897 19.8128 24.4267 19.7537 24.5596 19.6862C25.999 18.9569 26.2396 17.7744 26.0934 16.7304C28.5672 18.6186 30.1631 21.5976 30.1631 24.9503Z" fill="url(#paint3_linear_45_378)"/>
<path d="M19.2331 32.0424C19.5042 32.4388 20.0527 32.5322 20.4329 32.2388C20.8607 31.9085 21.2894 31.5328 21.7163 31.106C21.9087 30.9135 22.1015 30.7096 22.2887 30.5008C23.7264 28.895 24.567 27.2633 24.7873 25.6495C24.9235 24.6488 24.8168 23.6864 24.479 22.805C24.3417 22.4465 23.9767 22.2284 23.5957 22.2753L23.5771 22.2776C23.0423 22.3434 22.7007 22.8934 22.8946 23.3962C23.4821 24.9203 23.1577 26.9966 21.0295 29.373C20.4896 29.9758 19.9461 30.4784 19.4055 30.8953C19.0547 31.1658 18.9737 31.6627 19.2235 32.0284L19.2331 32.0424Z" fill="url(#paint4_linear_45_378)"/>
<path d="M23.1286 24.3725C23.2139 25.1577 23.0758 26.0458 22.6316 27.0134C22.4834 27.3362 22.5485 27.7168 22.7997 27.9679C23.2146 28.3829 23.918 28.2598 24.1638 27.7269C24.4837 27.0335 24.6921 26.3398 24.7863 25.6495C24.8535 25.1561 24.8612 24.672 24.8114 24.2025C24.7594 23.7123 24.3002 23.3713 23.8166 23.4666C23.8111 23.4676 23.8055 23.4687 23.8 23.4698C23.3769 23.5529 23.0819 23.9439 23.1286 24.3725Z" fill="url(#paint5_linear_45_378)"/>
<path d="M19.8692 24.9304C18.8744 25.4496 17.5807 25.372 16.1917 25.4124C15.711 25.4263 15.3375 25.8412 15.3813 26.32L15.3829 26.3369C15.4229 26.779 15.797 27.1151 16.2408 27.1019C16.4559 27.096 16.6711 27.0916 16.8863 27.0888C18.1141 27.0697 19.4664 27.0486 20.6548 26.428C21.1527 26.1679 21.2575 25.5008 20.8604 25.1036L20.8454 25.0887C20.588 24.8313 20.1919 24.762 19.8692 24.9304Z" fill="url(#paint6_linear_45_378)"/>
<path d="M18.601 25.3048C18.3702 25.3369 18.1311 25.3571 17.8852 25.3703C17.3714 25.3981 17.0034 25.8762 17.1105 26.3796L17.1142 26.3969C17.1995 26.7985 17.5645 27.0798 17.9745 27.057C18.2606 27.0412 18.5487 27.0164 18.8357 26.9762C19.3982 26.8974 19.7216 26.2941 19.4739 25.783L19.4664 25.7676C19.3896 25.6089 19.2644 25.4786 19.1089 25.3955C18.9535 25.3123 18.7756 25.2806 18.601 25.3048Z" fill="url(#paint7_linear_45_378)"/>
<path d="M19.8517 4.91345C20.06 5.12173 20.06 5.45939 19.8517 5.66767C19.6434 5.87594 19.3058 5.87594 19.0975 5.66767C18.8892 5.45939 18.8892 5.12173 19.0975 4.91345C19.3058 4.70517 19.6434 4.70517 19.8517 4.91345Z" fill="#DB765A"/>
<path d="M22.0268 5.37937C22.3166 5.6692 22.3166 6.13911 22.0268 6.42895C21.737 6.71878 21.267 6.71882 20.9772 6.42898C20.6873 6.13915 20.6874 5.66924 20.9772 5.37941C21.2671 5.08958 21.737 5.08954 22.0268 5.37937Z" fill="#591B16"/>
<path d="M19.1751 3.40891C19.1993 3.56742 19.1859 3.7294 19.1358 3.88174C19.0858 4.03408 19.0006 4.17249 18.8871 4.28575C18.4879 4.68491 17.8406 4.68529 17.4414 4.28614C17.2024 4.04712 17.1064 3.71928 17.1538 3.40895L19.1751 3.40891Z" fill="#DB765A"/>
<path d="M10.7215 27.0659C11.2375 26.9836 11.5876 26.5051 11.5243 25.9865C11.486 25.6723 11.4652 25.3561 11.462 25.0396C11.4439 23.3299 11.934 21.6976 12.8628 20.311C12.9918 20.1185 13.0481 19.8863 13.0215 19.6561C12.995 19.4258 12.8873 19.2126 12.7177 19.0545L12.7033 19.041C12.2655 18.6324 11.5636 18.7107 11.2305 19.2083C10.112 20.8789 9.4677 22.8937 9.49005 25.0603C9.49409 25.4547 9.5204 25.8486 9.56886 26.24C9.63583 26.7809 10.1384 27.1589 10.6767 27.0731L10.7215 27.0659Z" fill="#E3F0FF"/>
<path d="M11.749 22.7654C11.8595 22.3548 12.0015 21.9534 12.1738 21.5646C12.387 21.0838 12.18 20.5202 11.7062 20.2916L11.6882 20.2829C11.1952 20.0453 10.5988 20.2576 10.3766 20.7576C10.1635 21.2375 9.98744 21.7331 9.85015 22.2399C9.69969 22.7952 10.0537 23.3613 10.6203 23.4612L10.6397 23.4647C11.1344 23.5517 11.6185 23.2504 11.749 22.7654Z" fill="#F5FAFF"/>
</g>
<defs>
<linearGradient id="paint0_linear_45_378" x1="27.1362" y1="32.2589" x2="16.9756" y2="22.0982" gradientUnits="userSpaceOnUse">
<stop stop-color="#A03410"/>
<stop offset="0.5" stop-color="#F8AA26"/>
<stop offset="1" stop-color="#FFE577"/>
</linearGradient>
<linearGradient id="paint1_linear_45_378" x1="27.1695" y1="32.2258" x2="17.0089" y2="22.0652" gradientUnits="userSpaceOnUse">
<stop stop-color="#A03410"/>
<stop offset="0.5" stop-color="#F8AA26"/>
<stop offset="1" stop-color="#FFE577"/>
</linearGradient>
<linearGradient id="paint2_linear_45_378" x1="27.1406" y1="32.2554" x2="13.7319" y2="18.8466" gradientUnits="userSpaceOnUse">
<stop stop-color="#A03410"/>
<stop offset="0.5" stop-color="#F8AA26"/>
<stop offset="1" stop-color="#FFE577"/>
</linearGradient>
<linearGradient id="paint3_linear_45_378" x1="29.642" y1="29.7526" x2="21.3566" y2="21.4672" gradientUnits="userSpaceOnUse">
<stop stop-color="#A03410"/>
<stop offset="0.5" stop-color="#F8AA26"/>
<stop offset="1" stop-color="#FFE577"/>
</linearGradient>
<linearGradient id="paint4_linear_45_378" x1="23.6476" y1="29.1746" x2="20.0379" y2="25.5648" gradientUnits="userSpaceOnUse">
<stop stop-color="#A03410"/>
<stop offset="0.5" stop-color="#F8AA26"/>
<stop offset="1" stop-color="#FFE577"/>
</linearGradient>
<linearGradient id="paint5_linear_45_378" x1="24.909" y1="27.0561" x2="22.4601" y2="24.6073" gradientUnits="userSpaceOnUse">
<stop stop-color="#A03410"/>
<stop offset="0.5" stop-color="#F8AA26"/>
<stop offset="1" stop-color="#FFE577"/>
</linearGradient>
<linearGradient id="paint6_linear_45_378" x1="19.7002" y1="27.4376" x2="16.7712" y2="24.5086" gradientUnits="userSpaceOnUse">
<stop stop-color="#A03410"/>
<stop offset="0.5" stop-color="#F8AA26"/>
<stop offset="1" stop-color="#FFE577"/>
</linearGradient>
<linearGradient id="paint7_linear_45_378" x1="19.0985" y1="26.9531" x2="17.5484" y2="25.4031" gradientUnits="userSpaceOnUse">
<stop stop-color="#A03410"/>
<stop offset="0.5" stop-color="#F8AA26"/>
<stop offset="1" stop-color="#FFE577"/>
</linearGradient>
</defs>
</svg>
