<svg width="255" height="255" viewBox="0 0 255 255" fill="none" xmlns="http://www.w3.org/2000/svg">
<path d="M148.193 87.1626L148.193 49.5421L106.733 49.5419L106.734 87.1641C106.734 92.8588 103.45 98.0116 98.3331 100.511C76.0361 111.403 60.7383 134.407 61.0142 160.957C61.3933 197.486 90.932 226.703 127.464 226.703C164.164 226.703 193.916 196.951 193.916 160.251C193.916 134.011 178.707 111.327 156.624 100.526C151.497 98.0184 148.193 92.8698 148.193 87.1626Z" fill="#CBE1FF"/>
<path d="M156.623 100.523C178.706 111.328 193.915 134.011 193.915 160.25C193.913 196.951 164.162 226.701 127.461 226.704C106.697 226.704 88.1888 217.262 76.014 202.403C91.8971 200.851 107.363 193.996 119.53 181.828C147.416 153.942 147.413 108.734 119.53 80.8501C115.578 76.8987 111.281 73.5079 106.733 70.6754V49.5426L148.192 49.5399L148.192 87.1603C148.19 92.8688 151.496 98.0186 156.623 100.523Z" fill="#A9CFFC"/>
<path d="M148.192 86.7972C147.163 85.5321 146.059 84.3105 144.881 83.1325C134.434 72.6861 120.385 68.0459 106.733 69.2061L106.733 49.5432L148.192 49.5402L148.192 86.7972Z" fill="#7CBAF7"/>
<path d="M193.919 160.25C193.916 196.951 164.165 226.702 127.465 226.704C109.893 226.703 93.9155 219.884 82.0331 208.748C65.6389 193.384 75.0225 165.858 97.3789 163.621C114.328 161.925 130.285 166.731 136.944 148.849C139.053 143.185 136.985 135.576 135.659 127.675C132.526 109.012 153.971 96.4352 168.786 108.211C184.1 120.383 193.919 139.17 193.919 160.25Z" fill="url(#paint0_linear_45_659)"/>
<path d="M193.917 160.251C193.914 196.952 164.163 226.703 127.462 226.705C112.391 226.703 98.4932 221.686 87.3453 213.232C104.009 213.363 120.714 207.071 133.43 194.355C156.132 171.653 158.36 136.23 140.121 111.03C146.798 103.175 159.182 100.578 168.783 108.213C184.098 120.382 193.916 139.17 193.917 160.251Z" fill="url(#paint1_linear_45_659)"/>
<path d="M148.192 52.188L106.074 52.188L103.33 25.6341C103.116 23.5666 104.738 21.7683 106.817 21.7683L147.449 21.7683C149.528 21.7683 151.15 23.5666 150.936 25.6339L148.192 52.188Z" fill="#933A25"/>
<path d="M117.236 42.4791C118.826 44.0691 118.826 46.647 117.236 48.2367C115.646 49.8267 113.068 49.8267 111.478 48.2367C109.888 46.6467 109.889 44.0691 111.479 42.4791C113.068 40.8893 115.646 40.8891 117.236 42.4791Z" fill="#591B16"/>
<path d="M150.935 25.6344L148.192 52.1893L107.714 52.1893C116.849 50.8956 125.653 46.7369 132.678 39.7119C137.877 34.5134 141.508 28.3368 143.562 21.77H147.449C149.526 21.7678 151.15 23.5651 150.935 25.6344Z" fill="#713327"/>
<path d="M151.796 63.5998L103.129 63.5998C98.5634 63.6001 94.8616 59.8983 94.8616 55.3322C94.8616 50.766 98.5631 47.0645 103.129 47.0645L151.796 47.0645C156.362 47.0645 160.064 50.766 160.064 55.3322C160.064 59.8986 156.363 63.6001 151.796 63.5998Z" fill="#E3F0FF"/>
<path d="M125.256 47.0649L113.619 47.0649C109.103 47.0647 105.443 50.721 105.435 55.2361L105.435 55.4015C105.427 59.9273 109.092 63.6003 113.618 63.6005L125.256 63.6003C129.776 63.6005 133.441 59.936 133.441 55.4151L133.441 55.2501C133.441 50.7292 129.776 47.0647 125.256 47.0649Z" fill="#F5FAFF"/>
<path d="M193.917 160.251C193.915 196.952 164.164 226.703 127.463 226.705C110.297 226.703 94.6522 220.195 82.8617 209.511C96.4296 211.857 116.167 209.928 135.195 188.683C168.871 151.078 132.293 125.16 110.955 135.115C91.4642 144.209 80.0939 125.509 94.0936 115.576C112.277 102.676 134.854 138.091 157.895 126.411C167.148 121.722 168.694 114.12 167.755 107.408C183.658 119.547 193.917 138.698 193.917 160.251Z" fill="url(#paint2_linear_45_659)"/>
<path d="M193.916 160.25C193.914 186.211 179.029 208.691 157.328 219.626C158.219 218.837 159.093 218.015 159.946 217.163C183.524 193.584 183.524 155.354 159.945 131.775C158.439 130.269 156.875 128.858 155.256 127.547C156.158 127.223 157.039 126.843 157.894 126.41C167.147 121.721 168.694 114.12 167.754 107.408C183.657 119.547 193.916 138.697 193.916 160.25Z" fill="url(#paint3_linear_45_659)"/>
<path d="M123.646 205.842C125.388 208.391 128.915 208.991 131.359 207.105C134.109 204.982 136.865 202.566 139.609 199.822C140.846 198.585 142.085 197.274 143.289 195.932C152.531 185.609 157.935 175.119 159.352 164.745C160.227 158.312 159.541 152.125 157.37 146.459C156.487 144.155 154.141 142.752 151.691 143.054L151.572 143.069C148.134 143.492 145.938 147.027 147.184 150.259C150.961 160.057 148.875 173.405 135.194 188.682C131.724 192.557 128.23 195.788 124.754 198.468C122.499 200.207 121.978 203.401 123.584 205.752L123.646 205.842Z" fill="url(#paint4_linear_45_659)"/>
<path d="M148.695 156.536C149.243 161.584 148.356 167.293 145.5 173.514C144.547 175.588 144.966 178.035 146.58 179.649C149.248 182.317 153.77 181.526 155.35 178.1C157.406 173.642 158.746 169.183 159.351 164.746C159.783 161.574 159.833 158.462 159.513 155.443C159.179 152.292 156.227 150.1 153.118 150.713C153.082 150.719 153.047 150.726 153.011 150.733C150.291 151.268 148.395 153.781 148.695 156.536Z" fill="url(#paint5_linear_45_659)"/>
<path d="M127.738 160.123C121.342 163.46 113.026 162.962 104.097 163.221C101.006 163.311 98.6053 165.978 98.8867 169.056L98.8969 169.165C99.1542 172.007 101.559 174.167 104.412 174.082C105.795 174.044 107.178 174.016 108.562 173.998C116.455 173.876 125.148 173.74 132.788 169.75C135.989 168.078 136.663 163.789 134.11 161.236L134.013 161.14C132.359 159.486 129.812 159.04 127.738 160.123Z" fill="url(#paint6_linear_45_659)"/>
<path d="M119.587 162.53C118.103 162.736 116.567 162.866 114.986 162.951C111.682 163.129 109.317 166.203 110.005 169.439L110.029 169.55C110.578 172.132 112.924 173.94 115.56 173.794C117.399 173.692 119.251 173.533 121.096 173.275C124.712 172.768 126.791 168.89 125.199 165.604L125.151 165.505C124.657 164.485 123.852 163.647 122.853 163.113C121.853 162.578 120.71 162.374 119.587 162.53Z" fill="url(#paint7_linear_45_659)"/>
<path d="M127.62 31.442C128.959 32.7809 128.959 34.9516 127.62 36.2905C126.281 37.6294 124.11 37.6294 122.771 36.2905C121.432 34.9516 121.432 32.7809 122.771 31.442C124.11 30.103 126.281 30.103 127.62 31.442Z" fill="#DB765A"/>
<path d="M141.61 34.4375C143.473 36.3007 143.473 39.3215 141.61 41.1847C139.747 43.0479 136.726 43.0482 134.863 41.185C132.999 39.3218 133 36.3009 134.863 34.4377C136.726 32.5745 139.747 32.5743 141.61 34.4375Z" fill="#591B16"/>
<path d="M123.269 21.7696C123.425 22.7886 123.338 23.8299 123.017 24.8092C122.695 25.7885 122.147 26.6783 121.417 27.4064C118.851 29.9724 114.69 29.9749 112.124 27.4089C110.588 25.8724 109.971 23.7648 110.275 21.7699L123.269 21.7696Z" fill="#DB765A"/>
<path d="M68.9291 173.851C72.2459 173.322 74.4969 170.246 74.0899 166.912C73.8436 164.892 73.7098 162.86 73.6892 160.825C73.5731 149.834 76.7235 139.341 82.6944 130.426C83.524 129.189 83.8858 127.696 83.7149 126.216C83.5441 124.736 82.8517 123.365 81.762 122.349L81.669 122.262C78.8549 119.636 74.3422 120.139 72.2009 123.338C65.0108 134.077 60.8688 147.03 61.0125 160.958C61.0385 163.493 61.2076 166.025 61.5191 168.542C61.9497 172.019 65.1806 174.449 68.6408 173.897L68.9291 173.851Z" fill="#E3F0FF"/>
<path d="M75.5301 146.205C76.2405 143.565 77.1536 140.985 78.2614 138.486C79.6319 135.395 78.301 131.772 75.2555 130.302L75.1394 130.246C71.9706 128.719 68.136 130.083 66.7081 133.298C65.3376 136.383 64.2061 139.568 63.3235 142.827C62.3562 146.397 64.6324 150.036 68.2745 150.678L68.3993 150.7C71.5793 151.26 74.6914 149.323 75.5301 146.205Z" fill="#F5FAFF"/>
<defs>
<linearGradient id="paint0_linear_45_659" x1="89.6305" y1="216.367" x2="183.75" y2="122.563" gradientUnits="userSpaceOnUse">
<stop stop-color="#B812CA"/>
<stop offset="1" stop-color="#4B44D6"/>
</linearGradient>
<linearGradient id="paint1_linear_45_659" x1="90.0545" y1="215.941" x2="183.746" y2="122.563" gradientUnits="userSpaceOnUse">
<stop stop-color="#B812CA"/>
<stop offset="1" stop-color="#4B44D6"/>
</linearGradient>
<linearGradient id="paint2_linear_45_659" x1="77.5744" y1="204.224" x2="171.612" y2="110.425" gradientUnits="userSpaceOnUse">
<stop stop-color="#B812CA"/>
<stop offset="1" stop-color="#4B44D6"/>
</linearGradient>
<linearGradient id="paint3_linear_45_659" x1="128.832" y1="191.13" x2="190.658" y2="129.472" gradientUnits="userSpaceOnUse">
<stop stop-color="#B812CA"/>
<stop offset="1" stop-color="#4B44D6"/>
</linearGradient>
<linearGradient id="paint4_linear_45_659" x1="115.105" y1="197.435" x2="162.164" y2="150.597" gradientUnits="userSpaceOnUse">
<stop stop-color="#B812CA"/>
<stop offset="1" stop-color="#4B44D6"/>
</linearGradient>
<linearGradient id="paint5_linear_45_659" x1="141.308" y1="174.377" x2="160.757" y2="154.984" gradientUnits="userSpaceOnUse">
<stop stop-color="#B812CA"/>
<stop offset="1" stop-color="#4B44D6"/>
</linearGradient>
<linearGradient id="paint6_linear_45_659" x1="104.51" y1="176.562" x2="127.003" y2="154.13" gradientUnits="userSpaceOnUse">
<stop stop-color="#B812CA"/>
<stop offset="1" stop-color="#4B44D6"/>
</linearGradient>
<linearGradient id="paint7_linear_45_659" x1="111.808" y1="172.556" x2="122.228" y2="162.161" gradientUnits="userSpaceOnUse">
<stop stop-color="#B812CA"/>
<stop offset="1" stop-color="#4B44D6"/>
</linearGradient>
</defs>
</svg>
