<?xml version="1.0" encoding="UTF-8"?>
<svg version="1.1" xmlns="http://www.w3.org/2000/svg" width="64" height="64">
<path d="M0 0 C21.12 0 42.24 0 64 0 C64 21.12 64 42.24 64 64 C42.88 64 21.76 64 0 64 C0 42.88 0 21.76 0 0 Z " fill="#020202" transform="translate(0,0)"/>
<path d="M0 0 C0.73863281 0.39058594 1.47726563 0.78117188 2.23828125 1.18359375 C2.88410156 1.52261719 3.52992187 1.86164062 4.1953125 2.2109375 C5.86328125 3.30859375 5.86328125 3.30859375 8.23828125 6.18359375 C9.46671189 12.34639283 8.21953898 16.7395579 5.23828125 22.18359375 C5.58265491 25.83981624 7.15576814 27.28572886 9.86328125 29.62109375 C13.20611346 32.85387387 13.20611346 32.85387387 13.48828125 35.74609375 C9.6447369 43.24100523 3.90169069 46.95787561 -3.51171875 50.49609375 C-12.92641739 52.48766462 -19.76349699 51.35795739 -28.265625 46.88671875 C-30.80472657 45.15424882 -32.24154704 43.84263998 -33.76171875 41.18359375 C-34.83570593 35.39248642 -33.49958576 31.30221468 -30.76171875 26.18359375 C-31.18509218 21.67962109 -34.10313017 19.83942711 -37.36328125 17.0625 C-38.76171875 15.18359375 -38.76171875 15.18359375 -38.6953125 12.71484375 C-36.51205486 6.79538371 -30.95024763 2.53735655 -25.44921875 -0.25390625 C-16.87628647 -4.13172349 -8.54758522 -3.93979606 0 0 Z " fill="#DCDCDC" transform="translate(44.76171875,7.81640625)"/>
<path d="M0 0 C2.5625 1.5 2.5625 1.5 4 4 C4.8258593 10.19394474 3.72671243 14.92993774 0 20 C-4.84906902 24.45232701 -9.34063116 26.41408826 -16.05859375 26.265625 C-18 26 -18 26 -20.5 24.5625 C-22.75011214 20.71855844 -22.73524516 17.34325236 -22 13 C-17.53433153 3.89003632 -10.03757426 -1.23018228 0 0 Z " fill="#030303" transform="translate(41,19)"/>
<path d="M0 0 C0.77923828 0.73089844 0.77923828 0.73089844 1.57421875 1.4765625 C0.71699219 1.91226562 -0.14023437 2.34796875 -1.0234375 2.796875 C-10.14247088 7.54658573 -17.05102166 12.36323211 -23.42578125 20.4765625 C-27.25370993 18.917036 -29.78937989 16.64024414 -32.42578125 13.4765625 C-32.09447829 8.84778687 -28.77593122 6.33599126 -25.58203125 3.31640625 C-19.17095026 -2.15391829 -7.50581595 -4.71379746 0 0 Z " fill="#090909" transform="translate(41.42578125,9.5234375)"/>
<path d="M0 0 C0.66 0 1.32 0 2 0 C3.7265625 1.75 3.7265625 1.75 5.625 4 C6.57246094 5.11375 6.57246094 5.11375 7.5390625 6.25 C8.02117188 6.8275 8.50328125 7.405 9 8 C7.30267588 14.41211334 2.33147061 17.57256901 -3.0625 20.875 C-8.91826191 23.13441499 -17.65391307 23.40632639 -23.42578125 20.98046875 C-23.94527344 20.65691406 -24.46476562 20.33335938 -25 20 C-25 19.34 -25 18.68 -25 18 C-24.38253906 17.79246094 -23.76507812 17.58492187 -23.12890625 17.37109375 C-14.72881091 14.31535131 -8.30785165 9.93466396 -2.5625 3.0625 C-1.716875 2.051875 -0.87125 1.04125 0 0 Z " fill="#070707" transform="translate(46,34)"/>
<path d="M0 0 C0.33 0 0.66 0 1 0 C1.35442873 4.96200215 0.18993656 7.62012688 -2 12 C-1.65822723 15.65769585 -0.08405189 17.10080783 2.625 19.4375 C5.96783221 22.67028012 5.96783221 22.67028012 6.25 25.5625 C2.40645565 33.05741148 -3.33659056 36.77428186 -10.75 40.3125 C-20.16469864 42.30407087 -27.00177824 41.17436364 -35.50390625 36.703125 C-38.01198303 34.99182378 -39.48278158 33.61876055 -41 31 C-40.6875 28.25 -40.6875 28.25 -40 26 C-38 29.75 -38 29.75 -38 32 C-34.7 32.33 -31.4 32.66 -28 33 C-29.485 33.495 -29.485 33.495 -31 34 C-31 34.66 -31 35.32 -31 36 C-23.43798951 38.27232827 -14.6064041 38.23845576 -7.4375 34.875 C-3.31972144 32.50744692 -0.7055824 29.87800145 2 26 C0.9007566 23.43509874 -0.12843192 21.87156808 -2.125 19.875 C-2.74375 19.25625 -3.3625 18.6375 -4 18 C-4 17.34 -4 16.68 -4 16 C-4.9590625 16.99 -4.9590625 16.99 -5.9375 18 C-8.42642298 20.47470056 -10.97628871 22.87717248 -13.5625 25.25 C-14.30628906 25.93578125 -15.05007812 26.6215625 -15.81640625 27.328125 C-17.96702962 28.97475613 -19.35532825 29.59220481 -22 30 C-22.33 29.01 -22.66 28.02 -23 27 C-21.98679687 26.56300781 -21.98679687 26.56300781 -20.953125 26.1171875 C-15.3720825 23.55248878 -11.89258613 21.66464784 -9 16 C-8.5875 15.21625 -8.175 14.4325 -7.75 13.625 C-7.5025 13.08875 -7.255 12.5525 -7 12 C-6.34 12 -5.68 12 -5 12 C-3.35 8.04 -1.7 4.08 0 0 Z " fill="#E9E9E9" transform="translate(52,18)"/>
<path d="M0 0 C1.9375 1 1.9375 1 3 3 C3.51862057 8.35907924 3.42747985 11.61282579 0 16 C-0.33 16 -0.66 16 -1 16 C-1.226875 14.741875 -1.45375 13.48375 -1.6875 12.1875 C-2.47447188 9.05069661 -2.74950869 8.20987109 -5.3125 6.0625 C-7.89145651 5.04291254 -10.25803499 4.39170929 -13 4 C-9.1677387 -0.19723857 -5.56260986 -0.39732928 0 0 Z " fill="#0C0C0C" transform="translate(48,13)"/>
<path d="M0 0 C0.33 0 0.66 0 1 0 C1.18175781 0.62648437 1.36351562 1.25296875 1.55078125 1.8984375 C1.80214844 2.71570312 2.05351562 3.53296875 2.3125 4.375 C2.55613281 5.18710937 2.79976562 5.99921875 3.05078125 6.8359375 C3.91368185 9.33184629 3.91368185 9.33184629 7 11 C8.9896995 11.39013716 10.99019869 11.73202649 13 12 C9.74775013 15.25224987 6.48737792 15.60537019 2.12109375 16.1796875 C-0 16 -0 16 -1.7890625 14.78515625 C-3.36630089 12.46000159 -3.20703596 11.31496849 -2.8125 8.5625 C-2.71582031 7.80066406 -2.61914062 7.03882813 -2.51953125 6.25390625 C-1.98253244 3.92421968 -1.15422182 2.08519909 0 0 Z " fill="#070707" transform="translate(16,35)"/>
<path d="M0 0 C2.67953841 2.67953841 2.97047356 5.39665745 4 9 C6.19797403 11.19797403 7.17546145 11.45897517 10.125 12.125 C12.043125 12.558125 12.043125 12.558125 14 13 C14 13.99 14 14.98 14 16 C11.69 16.99 9.38 17.98 7 19 C6.34 18.34 5.68 17.68 5 17 C6.65 16.34 8.3 15.68 10 15 C8.9275 14.67 7.855 14.34 6.75 14 C2.57348949 12.26331713 1.36392372 9.67354671 -0.37109375 5.64453125 C-0.57863281 5.10183594 -0.78617188 4.55914062 -1 4 C-1.45375 5.134375 -1.9075 6.26875 -2.375 7.4375 C-4 11 -4 11 -6 12 C-5.07692308 4 -5.07692308 4 -3 1 C-2.01 0.67 -1.02 0.34 0 0 Z " fill="#CBCBCB" transform="translate(17,33)"/>
<path d="M0 0 C2 3.75 2 3.75 2 6 C5.3 6.33 8.6 6.66 12 7 C11.01 7.33 10.02 7.66 9 8 C9 8.66 9 9.32 9 10 C13.62 10.99 18.24 11.98 23 13 C22.67 13.66 22.34 14.32 22 15 C14.27575504 15.89125903 8.46130871 13.17352681 2 9 C0.125 6.96875 0.125 6.96875 -1 5 C-0.6875 2.25 -0.6875 2.25 0 0 Z " fill="#E6E6E6" transform="translate(12,44)"/>
<path d="M0 0 C0.33 0.99 0.66 1.98 1 3 C-3.47760448 9.6441873 -10.13902384 14.21341451 -18 16 C-20.0625 15.6875 -20.0625 15.6875 -22 15 C-23.66519519 14.65939189 -25.33157466 14.32441604 -27 14 C-27 13.67 -27 13.34 -27 13 C-26.39414062 12.98582031 -25.78828125 12.97164062 -25.1640625 12.95703125 C-17.73562168 12.53418154 -10.79973779 10.71075096 -5.33203125 5.37109375 C-4.16891505 3.95557111 -3.07758186 2.48167506 -2 1 C-1.34 0.67 -0.68 0.34 0 0 Z " fill="#DFDFDF" transform="translate(56,43)"/>
<path d="M0 0 C2.3125 1.25 2.3125 1.25 5 3 C6.3303125 3.7425 6.3303125 3.7425 7.6875 4.5 C10 6 10 6 12 9 C12.39387788 11.32387947 12.73486085 13.65793749 13 16 C12.01 16 11.02 16 10 16 C9.87882812 15.36191406 9.75765625 14.72382813 9.6328125 14.06640625 C9.46523438 13.24011719 9.29765625 12.41382813 9.125 11.5625 C8.96257813 10.73878906 8.80015625 9.91507813 8.6328125 9.06640625 C8.31957031 8.04353516 8.31957031 8.04353516 8 7 C4.53383944 5.26691972 0.789781 5.5214923 -3 6 C-6.3669115 7.74348693 -6.3669115 7.74348693 -9 10 C-9.99 10.66 -10.98 11.32 -12 12 C-12 11.01 -12 10.02 -12 9 C-9.8828125 6.9921875 -9.8828125 6.9921875 -7.125 4.875 C-6.22007813 4.17117187 -5.31515625 3.46734375 -4.3828125 2.7421875 C-2 1 -2 1 0 0 Z " fill="#CECECE" transform="translate(35,14)"/>
<path d="M0 0 C1 2 1 2 1.25 3.8125 C2.34786554 7.01460784 4.55102234 8.73940523 7 11 C9.49361571 9.79618552 11.68143083 8.54571278 14 7 C12 12 12 12 10 17 C8.1875 16.8125 8.1875 16.8125 6 16 C4.96564444 14.35443434 3.97236487 12.6829392 3 11 C1.41564457 9.44749091 -0.20850017 7.9731701 -1.890625 6.52734375 C-3 5 -3 5 -2.796875 2.87890625 C-2 1 -2 1 0 0 Z " fill="#F4F4F4" transform="translate(9,18)"/>
<path d="M0 0 C4.046875 2.40625 4.046875 2.40625 5.3125 4.375 C5 7.5625 5 7.5625 4.3125 10.375 C2.3125 6.625 2.3125 6.625 2.3125 4.375 C-4.74401252 4.22524761 -4.74401252 4.22524761 -11.6875 5.375 C-8.59686277 1.76925656 -4.85193093 -1.12835603 0 0 Z " fill="#DCDCDC" transform="translate(47.6875,9.625)"/>
<path d="M0 0 C5.8022175 -0.36263859 9.63999211 0.74315457 15 3 C15 3.66 15 4.32 15 5 C9.94468132 4.22225866 4.98283716 3.14051606 0 2 C0 1.34 0 0.68 0 0 Z " fill="#ECECEC" transform="translate(30,5)"/>
<path d="M0 0 C0.99 0.33 1.98 0.66 3 1 C-4.59047487 8.98421708 -4.59047487 8.98421708 -9 11 C-11 10 -11 10 -12 8 C-10.95199219 7.51080078 -10.95199219 7.51080078 -9.8828125 7.01171875 C-8.97273438 6.57472656 -8.06265625 6.13773438 -7.125 5.6875 C-6.22007813 5.25824219 -5.31515625 4.82898437 -4.3828125 4.38671875 C-1.73550524 3.0800612 -1.73550524 3.0800612 0 0 Z " fill="#E8E8E8" transform="translate(41,37)"/>
<path d="M0 0 C0.33 0.99 0.66 1.98 1 3 C0.20335937 3.38091797 0.20335937 3.38091797 -0.609375 3.76953125 C-4.3324172 5.58349524 -7.79762215 7.3313518 -11 10 C-11 9.01 -11 8.02 -11 7 C-9.1015625 5.17578125 -9.1015625 5.17578125 -6.625 3.3125 C-5.81289063 2.68988281 -5.00078125 2.06726563 -4.1640625 1.42578125 C-2 0 -2 0 0 0 Z " fill="#DCDCDC" transform="translate(34,16)"/>
<path d="M0 0 C3.3 0.33 6.6 0.66 10 1 C9.67 1.66 9.34 2.32 9 3 C6.36 3 3.72 3 1 3 C0.67 2.01 0.34 1.02 0 0 Z " fill="#EEEEEE" transform="translate(25,56)"/>
<path d="M0 0 C0 0.66 0 1.32 0 2 C1.32 2.33 2.64 2.66 4 3 C0.7 3.33 -2.6 3.66 -6 4 C-6.33 3.01 -6.66 2.02 -7 1 C-4 0 -4 0 0 0 Z " fill="#D4D4D4" transform="translate(30,5)"/>
<path d="M0 0 C0 0.66 0 1.32 0 2 C-1.96466413 3.06775224 -3.96855359 4.06553465 -6 5 C-6.66 4.67 -7.32 4.34 -8 4 C-4.5 0 -4.5 0 0 0 Z " fill="#EDEDED" transform="translate(24,7)"/>
<path d="M0 0 C0.99 0.33 1.98 0.66 3 1 C0.69 3.31 -1.62 5.62 -4 8 C-4.33 7.01 -4.66 6.02 -5 5 C-3.35 3.35 -1.7 1.7 0 0 Z " fill="#D3D3D3" transform="translate(41,37)"/>
</svg>
