<svg width="14" height="14" viewBox="0 0 14 14" fill="none" xmlns="http://www.w3.org/2000/svg">
<g clip-path="url(#clip0_45_345)">
<path d="M13.9854 6.99997C13.9854 11.006 10.6157 14.2226 6.55532 13.9712C3.07634 13.7556 0.244784 10.9241 0.029455 7.44508C-0.222244 3.38466 2.99444 0.0150249 7.00043 0.0150249C8.06402 0.0131995 9.11383 0.255546 10.069 0.723395C10.3173 0.84527 10.4084 1.15453 10.2713 1.39491L10.2704 1.3966C10.2093 1.50327 10.1098 1.58256 9.99222 1.61821C9.87461 1.65386 9.74783 1.64317 9.63785 1.58832C8.71825 1.13551 7.66689 0.91512 6.55725 0.994363C3.64284 1.20222 1.26266 3.53977 1.00325 6.45009C0.6805 10.0724 3.58335 13.1128 7.16036 13.0193C10.2236 12.9393 12.7806 10.51 13.0048 7.45399C13.0633 6.68699 12.9734 5.91592 12.7401 5.18292C12.7057 5.07407 12.7113 4.95649 12.756 4.85144C12.8007 4.74639 12.8816 4.6608 12.9839 4.61016C13.2474 4.47841 13.5704 4.61016 13.6597 4.89076C13.8762 5.57288 13.9862 6.28434 13.9854 6.99997Z" fill="#FAFAFA"/>
<path d="M3.48555 5.18676L7.29452 10.3404C7.36013 10.4301 7.44713 10.5018 7.54759 10.5492C7.64804 10.5966 7.75876 10.6181 7.86965 10.6117C7.98054 10.6054 8.08807 10.5713 8.18244 10.5128C8.27681 10.4542 8.35502 10.3729 8.40994 10.2764L13.9141 0.74843C14.2007 0.252258 13.5468 -0.246563 13.1568 0.171088L7.42241 6.31351L4.09517 4.47189C3.64548 4.22308 3.17822 4.7708 3.48555 5.18676Z" fill="url(#paint0_linear_45_345)"/>
</g>
<defs>
<linearGradient id="paint0_linear_45_345" x1="8.68567" y1="0.0150146" x2="8.68567" y2="10.6128" gradientUnits="userSpaceOnUse">
<stop stop-color="#A03410"/>
<stop offset="0.5" stop-color="#F8AA26"/>
<stop offset="1" stop-color="#FFE577"/>
</linearGradient>
<clipPath id="clip0_45_345">
<rect width="14" height="14" fill="white"/>
</clipPath>
</defs>
</svg>
