<svg width="14" height="14" viewBox="0 0 14 14" fill="none" xmlns="http://www.w3.org/2000/svg">
<path d="M13.9698 6.98496C13.9698 10.9909 10.6001 14.2076 6.5397 13.9562C3.06071 13.7406 0.229159 10.9091 0.01383 7.43007C-0.237869 3.36964 2.97882 1.02359e-05 6.98481 1.02359e-05C8.04839 -0.00181517 9.0982 0.240531 10.0534 0.70838C10.3017 0.830255 10.3927 1.13952 10.2557 1.3799L10.2547 1.38158C10.1937 1.48826 10.0942 1.56755 9.97659 1.6032C9.85899 1.63885 9.7322 1.62815 9.62223 1.57331C8.70262 1.12049 7.65127 0.900105 6.54162 0.979348C3.62721 1.18721 1.24703 3.52476 0.987628 6.43507C0.664875 10.0574 3.56772 13.0977 7.14474 13.0043C10.208 12.9243 12.765 10.495 12.9892 7.43898C13.0477 6.67198 12.9578 5.9009 12.7245 5.16791C12.6901 5.05906 12.6957 4.94148 12.7404 4.83642C12.7851 4.73137 12.8659 4.64578 12.9683 4.59514C13.2318 4.46339 13.5548 4.59514 13.6441 4.87574C13.8605 5.55786 13.9705 6.26932 13.9698 6.98496Z" fill="#FAFAFA"/>
<path d="M3.46993 5.17175L7.27889 10.3254C7.3445 10.4151 7.4315 10.4868 7.53196 10.5342C7.63242 10.5816 7.74314 10.6031 7.85403 10.5967C7.96491 10.5903 8.07244 10.5563 8.16682 10.4977C8.26119 10.4392 8.3394 10.3579 8.39432 10.2614L13.8985 0.733415C14.1851 0.237243 13.5311 -0.261578 13.1412 0.156073L7.40679 6.29849L4.07955 4.45687C3.62986 4.20806 3.16259 4.75578 3.46993 5.17175Z" fill="url(#paint0_linear_45_409)"/>
<defs>
<linearGradient id="paint0_linear_45_409" x1="3.37109" y1="6.14078" x2="13.969" y2="6.1284" gradientUnits="userSpaceOnUse">
<stop stop-color="#B812CA"/>
<stop offset="1" stop-color="#4B44D6"/>
</linearGradient>
</defs>
</svg>
